#!OML:ASF E:\Steps\Project 1\Capture day 1\Session 2\Subject.ASF
:FULLY-SPECIFIED
:DEGREES
95
root 9.2794 16.3753 8.69514 -152.57 -0.354749 179.343
lowerback -27.916 -1.28728 -6.85551
upperback -2.25334 -0.203831 -0.588928
thorax 13.0125 -0.77185 3.13339
lowerneck 0.0567762 0.120022 -3.97394
upperneck 8.85931 -0.675929 6.86441
head 2.89689 -0.430626 2.9438
rclavicle -5.96354e-015 -1.19271e-014
rhumerus -34.0675 -18.4201 -80.5285
rradius 28.2361
rwrist 3.36531
rhand -10.7872 -50.9485
rfingers 7.12502
rthumb 15.2255 -80.3683
lclavicle -5.96354e-015 -1.19271e-014
lhumerus -27.366 4.4766 82.6088
lradius 19.513
lwrist -10.5294
lhand -22.8829 -12.4115
lfingers 7.12502
lthumb 3.5562 17.5386
rfemur -26.441 10.0203 14.9113
rtibia 9.48344
rfoot -19.9867 -8.29654
rtoes -29.2635
lfemur -27.2717 -10.0559 -16.9279
ltibia 9.76162
lfoot -8.37307 4.77286
ltoes -42.5165
96
root 9.27888 16.3757 8.69327 -152.593 -0.331109 179.357
lowerback -27.8956 -1.28043 -6.85125
upperback -2.24847 -0.197134 -0.578657
thorax 13.0068 -0.768059 3.1456
lowerneck 0.145206 0.130245 -3.97681
upperneck 8.85125 -0.667307 6.86488
head 2.87711 -0.429355 2.94376
rclavicle 5.36719e-015 -5.56597e-015
rhumerus -34.0619 -18.6422 -80.418
rradius 28.1317
rwrist 3.56892
rhand -10.7302 -50.826
rfingers 7.12502
rthumb 15.2804 -80.2416
lclavicle 5.36719e-015 -5.56597e-015
lhumerus -27.4715 4.35051 82.6578
lradius 19.6076
lwrist -10.5047
lhand -22.9983 -12.3858
lfingers 7.12502
lthumb 3.44474 17.5661
rfemur -26.4232 10.0718 14.9126
rtibia 9.4821
rfoot -19.918 -8.32667
rtoes -28.9561
lfemur -27.2561 -10.0118 -16.9242
ltibia 9.8178
lfoot -8.4583 4.68628
ltoes -41.8767
97
root 9.27933 16.3752 8.69371 -152.561 -0.324096 179.36
lowerback -27.9186 -1.27975 -6.84913
upperback -2.23756 -0.193242 -0.580508
thorax 13.0316 -0.766739 3.14359
lowerneck 0.187307 0.136027 -3.99431
upperneck 8.85045 -0.6622 6.87072
head 2.86892 -0.428616 2.9488
rclavicle -4.87022e-015 1.82882e-014
rhumerus -34.028 -18.8038 -80.3592
rradius 28.0373
rwrist 3.70633
rhand -10.6512 -50.9404
rfingers 7.12502
rthumb 15.3564 -80.3502
lclavicle -4.87022e-015 1.82882e-014
lhumerus -27.4913 4.4692 82.6182
lradius 19.6195
lwrist -10.8007
lhand -23.2041 -12.5368
lfingers 7.12502
lthumb 3.24595 17.4183
rfemur -26.4985 10.1243 14.8926
rtibia 9.52739
rfoot -19.9169 -8.47185
rtoes -29.1783
lfemur -27.3044 -9.99069 -16.9072
ltibia 9.83745
lfoot -8.49959 4.6852
ltoes -41.6647
98
root 9.27799 16.3757 8.6928 -152.57 -0.316324 179.32
lowerback -27.8965 -1.26726 -6.86556
upperback -2.23218 -0.167901 -0.619104
thorax 13.0234 -0.754587 3.11814
lowerneck 0.222451 0.138649 -3.98999
upperneck 8.83549 -0.659928 6.87634
head 2.85717 -0.428126 2.94944
rclavicle -4.17448e-015 2.90226e-014
rhumerus -34.0783 -18.7456 -80.3961
rradius 28.0814
rwrist 3.56599
rhand -10.6198 -50.8647
rfingers 7.12502
rthumb 15.3867 -80.2721
lclavicle -4.17448e-015 2.90226e-014
lhumerus -27.4739 4.4761 82.5735
lradius 19.5765
lwrist -10.9262
lhand -23.144 -12.6112
lfingers 7.12502
lthumb 3.30407 17.3429
rfemur -26.4993 10.1362 14.8392
rtibia 9.55832
rfoot -19.9463 -8.51365
rtoes -29.5544
lfemur -27.2243 -10.1422 -16.9298
ltibia 9.69905
lfoot -8.44489 4.8413
ltoes -41.8275
99
root 9.27769 16.3771 8.69202 -152.632 -0.34464 179.317
lowerback -27.7725 -1.25602 -6.83996
upperback -2.23092 -0.163278 -0.651024
thorax 12.9585 -0.746219 3.06906
lowerneck 0.255195 0.140961 -3.97887
upperneck 8.82807 -0.658766 6.87768
head 2.84837 -0.428217 2.94742
rclavicle 1.19271e-015 -2.38542e-015
rhumerus -34.1432 -18.6873 -80.4466
rradius 28.1344
rwrist 3.46693
rhand -10.5688 -50.816
rfingers 7.12502
rthumb 15.4359 -80.2197
lclavicle 1.19271e-015 -2.38542e-015
lhumerus -27.5295 4.29498 82.5564
lradius 19.6202
lwrist -10.8281
lhand -23.0408 -12.565
lfingers 7.12502
lthumb 3.40372 17.3875
rfemur -26.4049 10.0658 14.8752
rtibia 9.55906
rfoot -19.9086 -8.46025
rtoes -29.5835
lfemur -27.1116 -10.1922 -16.9432
ltibia 9.61849
lfoot -8.44081 4.85741
ltoes -42.6194
100
root 9.27972 16.3775 8.69059 -152.648 -0.356788 179.373
lowerback -27.7453 -1.28153 -6.80068
upperback -2.17042 -0.19944 -0.624819
thorax 13.0201 -0.759354 3.0634
lowerneck 0.179122 0.150528 -3.97892
upperneck 8.83294 -0.64014 6.86725
head 2.86289 -0.416619 2.94499
rclavicle -4.07509e-015 -6.36111e-015
rhumerus -33.9254 -18.827 -80.452
rradius 27.9369
rwrist 3.64748
rhand -10.5667 -51.0844
rfingers 7.12502
rthumb 15.4379 -80.4879
lclavicle -4.07509e-015 -6.36111e-015
lhumerus -27.4732 4.36076 82.5127
lradius 19.6527
lwrist -10.8909
lhand -22.995 -12.5531
lfingers 7.12502
lthumb 3.44795 17.3988
rfemur -26.4006 10.068 14.9559
rtibia 9.59721
rfoot -19.9617 -8.45139
rtoes -29.3371
lfemur -27.0853 -10.1352 -16.8733
ltibia 9.61079
lfoot -8.52067 4.79712
ltoes -42.8877
101
root 9.28048 16.3763 8.68773 -152.608 -0.319969 179.386
lowerback -27.8187 -1.3008 -6.82042
upperback -2.10938 -0.204304 -0.603877
thorax 13.1324 -0.764956 3.0968
lowerneck 0.128265 0.161361 -3.97159
upperneck 8.8246 -0.620023 6.85575
head 2.86805 -0.404641 2.94041
rclavicle 1.39149e-015 2.82274e-014
rhumerus -33.6528 -19.0228 -80.4026
rradius 27.6502
rwrist 3.85869
rhand -10.6162 -51.4105
rfingers 7.12502
rthumb 15.3902 -80.8177
lclavicle 1.39149e-015 2.82274e-014
lhumerus -27.4098 4.16715 82.5639
lradius 19.7105
lwrist -10.6955
lhand -22.9778 -12.6019
lfingers 7.12502
lthumb 3.46453 17.3497
rfemur -26.4665 10.1079 14.9457
rtibia 9.60363
rfoot -20.0221 -8.46269
rtoes -29.2382
lfemur -27.1058 -10.1624 -16.8266
ltibia 9.58489
lfoot -8.58131 4.84571
ltoes -42.256
